<?xml version="1.0" encoding="UTF-8"?>
<svg width="512px" height="512px" viewBox="0 0 512 512" version="1.1" xmlns="http://www.w3.org/2000/svg" xmlns:xlink="http://www.w3.org/1999/xlink">
    <!-- Generator: Sketch 52.2 (67145) - http://www.bohemiancoding.com/sketch -->
    <title>ic_github</title>
    <desc>Created with Sketch.</desc>
    <g id="ic_github" stroke="none" stroke-width="1" fill="none" fill-rule="evenodd">
        <g id="Group-2" fill="#AAAAAA">
            <g id="Group" transform="translate(0.000000, -0.000000)">
                <path d="M256.00212,0 C114.634585,0 0,114.524512 0,255.803603 C0,368.824334 73.3523991,464.710443 175.069874,498.534908 C187.864045,500.902832 192.561176,492.985747 192.561176,486.229326 C192.561176,480.129485 192.323776,459.978831 192.213554,438.603972 C120.993517,454.078082 105.965241,408.422468 105.965241,408.422468 C94.3199172,378.855184 77.5408156,370.993167 77.5408156,370.993167 C54.313757,355.116636 79.2916415,355.442808 79.2916415,355.442808 C104.998684,357.247345 118.53473,381.80344 118.53473,381.80344 C141.367535,420.910197 178.42315,409.604312 193.031737,403.068163 C195.329431,386.535053 201.963916,375.250347 209.285167,368.862458 C152.423598,362.394085 92.6496378,340.460074 92.6496378,242.443257 C92.6496378,214.515305 102.650118,191.69597 119.026487,173.781924 C116.368454,167.338967 107.605846,141.321451 121.506471,106.086398 C121.506471,106.086398 143.0039,99.2113695 191.925283,132.307242 C212.345933,126.639473 234.246094,123.797117 256.00212,123.699689 C277.758145,123.797117 299.675264,126.639473 320.134067,132.307242 C368.9961,99.2113695 390.463854,106.086398 390.463854,106.086398 C404.398394,141.321451 395.631546,167.338967 392.973513,173.781924 C409.388036,191.69597 419.320687,214.515305 419.320687,242.443257 C419.320687,340.693054 359.432267,362.326309 302.426562,368.65913 C311.608859,376.597395 319.790685,392.164697 319.790685,416.030325 C319.790685,450.257209 319.493935,477.803921 319.493935,486.229326 C319.493935,493.036579 324.102041,501.012968 337.078501,498.50102 C438.740865,464.638431 512,368.78621 512,255.803603 C512,114.524512 397.382372,0 256.00212,0" id="Fill-5"></path>
                <path d="M97.001332,366.372024 C96.440045,367.738915 94.4481091,368.148982 92.6334217,367.210384 C90.7849726,366.312792 89.7468026,364.449264 90.3460715,363.077817 C90.8946979,361.66992 92.8908541,361.278078 94.7350829,362.221232 C96.5877521,363.118824 97.6428029,365.000577 97.001332,366.372024" id="Fill-6"></path>
                <path d="M107.379922,378.118434 C106.076734,379.297507 103.529181,378.749923 101.800645,376.886368 C100.013286,375.027229 99.6784388,372.541018 100.999727,371.34428 C102.343641,370.165206 104.81427,370.717207 106.606154,372.576346 C108.393514,374.457565 108.741936,376.926112 107.379922,378.118434" id="Fill-7"></path>
                <path d="M117.036487,393.339807 C115.483833,394.408347 112.945032,393.406331 111.375592,391.173623 C109.822938,388.940915 109.822938,386.263328 111.409163,385.19063 C112.9828,384.117933 115.483833,385.082529 117.074254,387.298606 C118.622713,389.568734 118.622713,392.246321 117.036487,393.339807" id="Fill-8"></path>
                <path d="M131.421739,407.803099 C129.954692,409.455731 126.830015,409.012011 124.543018,406.757187 C122.202834,404.552168 121.551306,401.423486 123.022785,399.770854 C124.50756,398.113694 127.649966,398.580053 129.954692,400.816766 C132.277147,403.017257 132.986293,406.168578 131.421739,407.803099" id="Fill-9"></path>
                <path d="M150.180019,416.422353 C149.549554,418.437778 146.617458,419.35388 143.663771,418.497431 C140.714402,417.615416 138.784142,415.254855 139.380061,413.218124 C139.993253,411.189916 142.938304,410.235465 145.913582,411.151568 C148.858633,412.029322 150.793211,414.37284 150.180019,416.422353" id="Fill-10"></path>
                <path d="M171.33309,416.72711 C171.405283,418.942538 168.942243,420.779831 165.89317,420.819869 C162.827111,420.891047 160.347085,419.098241 160.313112,416.918402 C160.313112,414.680731 162.720945,412.861233 165.787005,412.807849 C168.836078,412.745568 171.33309,414.525028 171.33309,416.72711" id="Fill-11"></path>
                <path d="M191.332687,414.815407 C191.699454,416.934815 189.571351,419.110915 186.530593,419.690917 C183.541013,420.249115 180.773199,418.940839 180.393637,416.838875 C180.022605,414.667136 182.189091,412.491036 185.174407,411.928477 C188.219429,411.387723 190.944596,412.661112 191.332687,414.815407" id="Fill-12"></path>
            </g>
        </g>
    </g>
</svg>