<?xml version="1.0" encoding="UTF-8"?>
<svg width="512px" height="512px" viewBox="0 0 512 512" version="1.1" xmlns="http://www.w3.org/2000/svg" xmlns:xlink="http://www.w3.org/1999/xlink">
    <!-- Generator: Sketch 52.2 (67145) - http://www.bohemiancoding.com/sketch -->
    <title>ic_linkedin</title>
    <desc>Created with Sketch.</desc>
    <g id="ic_linkedin" stroke="none" stroke-width="1" fill="none" fill-rule="evenodd">
        <g id="Group" fill="#AAAAAA">
            <path d="M256,512 C114.615104,512 0,397.384896 0,256 C0,114.615104 114.615104,0 256,0 C397.384896,0 512,114.615104 512,256 C512,397.384896 397.384896,512 256,512 Z M351.0775,351.07 L311.035,351.07 L311.035,288.4075 C311.035,273.4675 310.78,254.245 290.23,254.245 C269.3875,254.245 266.2075,270.5275 266.2075,287.3425 L266.2075,351.07 L226.21,351.07 L226.21,222.22 L264.595,222.22 L264.595,239.8375 L265.15,239.8375 C270.49,229.705 283.555,219.025 303.0325,219.025 C343.585,219.025 351.0775,245.7025 351.0775,280.405 L351.0775,351.07 Z M181.06,204.6175 C168.1975,204.6175 157.825,194.215 157.825,181.39 C157.825,168.5725 168.1975,158.17 181.06,158.17 C193.87,158.17 204.265,168.5725 204.265,181.39 C204.265,194.215 193.87,204.6175 181.06,204.6175 Z M161.005,351.07 L161.005,222.22 L201.0925,222.22 L201.0925,351.07 L161.005,351.07 Z M371.02,121 L140.9125,121 C129.925,121 121,129.715 121,140.47 L121,371.515 C121,382.27 129.925,391 140.9125,391 L371.02,391 C382.03,391 390.9925,382.27 390.9925,371.515 L390.9925,140.47 C390.9925,129.715 382.03,121 371.02,121 Z" id="Combined-Shape"></path>
        </g>
    </g>
</svg>