<?xml version="1.0" encoding="UTF-8"?>
<svg width="512px" height="512px" viewBox="0 0 512 512" version="1.1" xmlns="http://www.w3.org/2000/svg" xmlns:xlink="http://www.w3.org/1999/xlink">
    <!-- Generator: Sketch 52.2 (67145) - http://www.bohemiancoding.com/sketch -->
    <title>ic_mail</title>
    <desc>Created with Sketch.</desc>
    <g id="ic_mail" stroke="none" stroke-width="1" fill="none" fill-rule="evenodd">
        <g id="Group" fill="#AAAAAA" fill-rule="nonzero">
            <path d="M256,512 C114.615104,512 0,397.384896 0,256 C0,114.615104 114.615104,0 256,0 C397.384896,0 512,114.615104 512,256 C512,397.384896 397.384896,512 256,512 Z M376,136 L136,136 C119.5,136 106.15,149.5 106.15,166 L106,346 C106,362.5 119.5,376 136,376 L376,376 C392.5,376 406,362.5 406,346 L406,166 C406,149.5 392.5,136 376,136 Z M376,346 L136,346 L136,196 L256,271 L376,196 L376,346 Z M256,241 L136,166 L376,166 L256,241 Z" id="Combined-Shape"></path>
        </g>
    </g>
</svg>