<?xml version="1.0" encoding="UTF-8"?>
<svg width="480px" height="201px" viewBox="0 0 480 201" version="1.1" xmlns="http://www.w3.org/2000/svg" xmlns:xlink="http://www.w3.org/1999/xlink">
    <!-- Generator: Sketch 52.2 (67145) - http://www.bohemiancoding.com/sketch -->
    <title>title</title>
    <desc>Created with Sketch.</desc>
    <g id="Welcome" stroke="none" stroke-width="1" fill="none" fill-rule="evenodd">
        <g id="Desktop-HD" transform="translate(-110.000000, -451.000000)" fill="#333333">
            <g id="title" transform="translate(108.000000, 428.000000)">
                <rect id="Rectangle" transform="translate(76.500000, 221.500000) scale(1, -1) translate(-76.500000, -221.500000) " x="5" y="219" width="143" height="5"></rect>
                <path d="M29.268,33.408 L24.516,35.082 C24.084,32.328 21.762,28.548 16.416,28.548 C12.096,28.548 9.018,31.356 9.018,34.92 C9.018,37.674 10.692,39.78 13.932,40.482 L19.656,41.724 C26.028,43.128 29.592,47.124 29.592,52.47 C29.592,58.41 24.516,63.81 16.362,63.81 C7.128,63.81 2.754,57.87 2.052,52.416 L7.128,50.796 C7.506,55.062 10.53,59.004 16.308,59.004 C21.6,59.004 24.192,56.25 24.192,52.902 C24.192,50.148 22.302,47.772 18.468,46.962 L13.014,45.774 C7.56,44.586 3.672,41.022 3.672,35.298 C3.672,29.304 9.234,23.904 16.308,23.904 C24.948,23.904 28.404,29.25 29.268,33.408 Z M47.336,59.274 C51.656,59.274 55.436,56.034 55.436,49.986 C55.436,43.992 51.656,40.752 47.336,40.752 C43.016,40.752 39.236,43.992 39.236,49.986 C39.236,56.034 43.016,59.274 47.336,59.274 Z M47.336,36.216 C55.112,36.216 60.62,42.102 60.62,49.986 C60.62,57.924 55.112,63.81 47.336,63.81 C39.56,63.81 34.052,57.924 34.052,49.986 C34.052,42.102 39.56,36.216 47.336,36.216 Z M80.578,41.616 L74.314,41.616 L74.314,63 L69.076,63 L69.076,41.616 L64.27,41.616 L64.27,37.026 L69.076,37.026 L69.076,32.652 C69.076,26.874 72.91,23.742 77.608,23.742 C79.336,23.742 80.416,24.12 80.632,24.282 L80.632,28.818 C80.362,28.71 79.714,28.494 78.418,28.494 C76.636,28.494 74.314,29.358 74.314,32.922 L74.314,37.026 L80.578,37.026 L80.578,41.616 Z M93.246,28.818 L93.246,37.026 L98.862,37.026 L98.862,41.616 L93.246,41.616 L93.246,55.116 C93.246,57.492 94.218,58.68 96.864,58.68 C97.512,58.68 98.43,58.572 98.862,58.464 L98.862,62.784 C98.43,62.946 97.134,63.27 95.406,63.27 C90.978,63.27 88.17,60.57 88.17,55.872 L88.17,41.616 L83.202,41.616 L83.202,37.026 L84.606,37.026 C87.414,37.026 88.602,35.298 88.602,33.03 L88.602,28.818 L93.246,28.818 Z M121.196,37.026 L126.434,37.026 L133.184,56.574 L138.908,37.026 L144.254,37.026 L135.83,63 L130.592,63 L123.68,43.236 L116.93,63 L111.584,63 L103.052,37.026 L108.614,37.026 L114.446,56.574 L121.196,37.026 Z M147.904,56.034 C147.904,51.39 151.306,48.798 155.788,48.15 L162.808,47.124 C164.374,46.908 164.806,46.098 164.806,45.18 C164.806,42.642 163.132,40.536 159.19,40.536 C155.626,40.536 153.628,42.75 153.304,45.774 L148.444,44.64 C148.984,39.672 153.466,36.216 159.082,36.216 C166.858,36.216 169.882,40.644 169.882,45.72 L169.882,58.734 C169.882,61.002 170.098,62.352 170.206,63 L165.238,63 C165.13,62.352 164.968,61.38 164.968,59.49 C163.834,61.326 161.242,63.81 156.598,63.81 C151.306,63.81 147.904,60.138 147.904,56.034 Z M157.3,59.544 C161.458,59.544 164.806,57.546 164.806,51.876 L164.806,50.688 L156.868,51.876 C154.708,52.2 153.088,53.442 153.088,55.764 C153.088,57.708 154.708,59.544 157.3,59.544 Z M192.594,36.756 L192.594,42.156 C191.838,42.048 191.082,41.994 190.38,41.994 C186.114,41.994 183.252,44.262 183.252,49.986 L183.252,63 L178.176,63 L178.176,37.026 L183.144,37.026 L183.144,41.562 C185.034,37.566 188.274,36.594 190.92,36.594 C191.622,36.594 192.324,36.702 192.594,36.756 Z M201.428,47.34 L215.63,47.34 C215.522,43.614 213.092,40.698 208.502,40.698 C204.236,40.698 201.644,43.992 201.428,47.34 Z M216.386,54.09 L220.76,55.602 C219.302,60.192 215.144,63.81 209.096,63.81 C202.13,63.81 196.028,58.734 196.028,49.932 C196.028,41.778 201.914,36.216 208.448,36.216 C216.44,36.216 220.922,41.724 220.922,49.824 C220.922,50.472 220.868,51.12 220.814,51.444 L201.266,51.444 C201.374,56.088 204.722,59.328 209.096,59.328 C213.308,59.328 215.414,57.006 216.386,54.09 Z M244.746,49.932 C244.746,55.278 247.5,59.22 252.36,59.22 C257.004,59.22 259.866,55.17 259.866,49.824 C259.866,44.478 257.058,40.806 252.414,40.806 C247.77,40.806 244.746,44.586 244.746,49.932 Z M259.92,59.49 L259.92,59.058 C258.678,61.542 255.924,63.702 251.874,63.702 C244.26,63.702 239.562,57.654 239.562,49.932 C239.562,42.588 244.53,36.324 251.874,36.324 C256.464,36.324 258.948,38.592 259.812,40.698 L259.812,23.904 L264.834,23.904 L264.834,58.194 C264.834,60.678 265.05,62.568 265.104,63 L260.19,63 C260.082,62.406 259.92,61.056 259.92,59.49 Z M277.178,47.34 L291.38,47.34 C291.272,43.614 288.842,40.698 284.252,40.698 C279.986,40.698 277.394,43.992 277.178,47.34 Z M292.136,54.09 L296.51,55.602 C295.052,60.192 290.894,63.81 284.846,63.81 C277.88,63.81 271.778,58.734 271.778,49.932 C271.778,41.778 277.664,36.216 284.198,36.216 C292.19,36.216 296.672,41.724 296.672,49.824 C296.672,50.472 296.618,51.12 296.564,51.444 L277.016,51.444 C277.124,56.088 280.472,59.328 284.846,59.328 C289.058,59.328 291.164,57.006 292.136,54.09 Z M325.27,37.026 L314.902,63 L309.772,63 L299.242,37.026 L304.966,37.026 L312.364,57.06 L319.816,37.026 L325.27,37.026 Z M333.024,47.34 L347.226,47.34 C347.118,43.614 344.688,40.698 340.098,40.698 C335.832,40.698 333.24,43.992 333.024,47.34 Z M347.982,54.09 L352.356,55.602 C350.898,60.192 346.74,63.81 340.692,63.81 C333.726,63.81 327.624,58.734 327.624,49.932 C327.624,41.778 333.51,36.216 340.044,36.216 C348.036,36.216 352.518,41.724 352.518,49.824 C352.518,50.472 352.464,51.12 352.41,51.444 L332.862,51.444 C332.97,56.088 336.318,59.328 340.692,59.328 C344.904,59.328 347.01,57.006 347.982,54.09 Z M364.484,63 L359.408,63 L359.408,23.904 L364.484,23.904 L364.484,63 Z M384.658,59.274 C388.978,59.274 392.758,56.034 392.758,49.986 C392.758,43.992 388.978,40.752 384.658,40.752 C380.338,40.752 376.558,43.992 376.558,49.986 C376.558,56.034 380.338,59.274 384.658,59.274 Z M384.658,36.216 C392.434,36.216 397.942,42.102 397.942,49.986 C397.942,57.924 392.434,63.81 384.658,63.81 C376.882,63.81 371.374,57.924 371.374,49.986 C371.374,42.102 376.882,36.216 384.658,36.216 Z M409.854,73.26 L404.832,73.26 L404.832,37.026 L409.746,37.026 L409.746,41.076 C411.15,38.484 414.228,36.432 418.44,36.432 C426.216,36.432 430.374,42.426 430.374,49.986 C430.374,57.708 425.892,63.702 418.278,63.702 C414.282,63.702 411.258,61.812 409.854,59.49 L409.854,73.26 Z M425.19,49.986 C425.19,44.802 422.274,40.914 417.522,40.914 C412.878,40.914 409.8,44.802 409.8,49.986 C409.8,55.332 412.878,59.166 417.522,59.166 C422.22,59.166 425.19,55.332 425.19,49.986 Z M440.558,47.34 L454.76,47.34 C454.652,43.614 452.222,40.698 447.632,40.698 C443.366,40.698 440.774,43.992 440.558,47.34 Z M455.516,54.09 L459.89,55.602 C458.432,60.192 454.274,63.81 448.226,63.81 C441.26,63.81 435.158,58.734 435.158,49.932 C435.158,41.778 441.044,36.216 447.578,36.216 C455.57,36.216 460.052,41.724 460.052,49.824 C460.052,50.472 459.998,51.12 459.944,51.444 L440.396,51.444 C440.504,56.088 443.852,59.328 448.226,59.328 C452.438,59.328 454.544,57.006 455.516,54.09 Z M481.36,36.756 L481.36,42.156 C480.604,42.048 479.848,41.994 479.146,41.994 C474.88,41.994 472.018,44.262 472.018,49.986 L472.018,63 L466.942,63 L466.942,37.026 L471.91,37.026 L471.91,41.562 C473.8,37.566 477.04,36.594 479.686,36.594 C480.388,36.594 481.09,36.702 481.36,36.756 Z M34.992,150 L29.7,150 L29.7,132.99 L10.152,132.99 L10.152,150 L4.86,150 L4.86,111.714 L10.152,111.714 L10.152,128.076 L29.7,128.076 L29.7,111.714 L34.992,111.714 L34.992,150 Z M61.7,146.868 C60.296,149.568 57.056,150.81 54.032,150.81 C47.984,150.81 44.312,146.274 44.312,140.388 L44.312,124.026 L49.388,124.026 L49.388,139.632 C49.388,143.196 51.008,146.328 55.274,146.328 C59.378,146.328 61.43,143.628 61.43,139.686 L61.43,124.026 L66.506,124.026 L66.506,145.194 C66.506,147.246 66.668,149.082 66.776,150 L61.916,150 C61.808,149.406 61.7,147.948 61.7,146.868 Z M73.396,151.404 L78.31,150.27 C78.688,153.888 81.442,156.642 85.384,156.642 C90.838,156.642 93.322,153.834 93.322,148.218 L93.322,144.492 C92.08,146.868 89.272,148.758 85.384,148.758 C78.472,148.758 73.45,143.52 73.45,136.176 C73.45,129.156 78.256,123.54 85.384,123.54 C89.38,123.54 92.08,125.052 93.376,127.644 L93.376,124.026 L98.398,124.026 L98.398,148.056 C98.398,154.644 95.158,161.07 85.384,161.07 C78.904,161.07 74.044,156.966 73.396,151.404 Z M86.14,144.492 C90.514,144.492 93.538,141.198 93.538,136.176 C93.538,131.154 90.514,127.86 86.14,127.86 C81.658,127.86 78.634,131.154 78.634,136.176 C78.634,141.252 81.55,144.492 86.14,144.492 Z M118.032,146.274 C122.352,146.274 126.132,143.034 126.132,136.986 C126.132,130.992 122.352,127.752 118.032,127.752 C113.712,127.752 109.932,130.992 109.932,136.986 C109.932,143.034 113.712,146.274 118.032,146.274 Z M118.032,123.216 C125.808,123.216 131.316,129.102 131.316,136.986 C131.316,144.924 125.808,150.81 118.032,150.81 C110.256,150.81 104.748,144.924 104.748,136.986 C104.748,129.102 110.256,123.216 118.032,123.216 Z M161.836,133.638 L148.336,111.714 L154.708,111.714 L164.644,128.778 L174.58,111.714 L180.628,111.714 L167.128,133.638 L167.128,150 L161.836,150 L161.836,133.638 Z M199.776,146.868 C198.372,149.568 195.132,150.81 192.108,150.81 C186.06,150.81 182.388,146.274 182.388,140.388 L182.388,124.026 L187.464,124.026 L187.464,139.632 C187.464,143.196 189.084,146.328 193.35,146.328 C197.454,146.328 199.506,143.628 199.506,139.686 L199.506,124.026 L204.582,124.026 L204.582,145.194 C204.582,147.246 204.744,149.082 204.852,150 L199.992,150 C199.884,149.406 199.776,147.948 199.776,146.868 Z" id="Software-developer-H"></path>
            </g>
        </g>
    </g>
</svg>