<?xml version="1.0" encoding="UTF-8"?>
<svg width="480px" height="201px" viewBox="0 0 480 201" version="1.1" xmlns="http://www.w3.org/2000/svg" xmlns:xlink="http://www.w3.org/1999/xlink">
    <!-- Generator: Sketch 53 (72520) - https://sketchapp.com -->
    <title>title</title>
    <desc>Created with Sketch.</desc>
    <g id="Page-1" stroke="none" stroke-width="1" fill="none" fill-rule="evenodd">
        <g id="title" fill="#CCCCCC" fill-rule="nonzero">
            <rect id="Rectangle" transform="translate(74.500000, 198.500000) scale(-1, 1) rotate(-180.000000) translate(-74.500000, -198.500000) " x="3" y="196" width="143" height="5"></rect>
            <path d="M27.268,10.408 L22.516,12.082 C22.084,9.328 19.762,5.548 14.416,5.548 C10.096,5.548 7.018,8.356 7.018,11.92 C7.018,14.674 8.692,16.78 11.932,17.482 L17.656,18.724 C24.028,20.128 27.592,24.124 27.592,29.47 C27.592,35.41 22.516,40.81 14.362,40.81 C5.128,40.81 0.754,34.87 0.052,29.416 L5.128,27.796 C5.506,32.062 8.53,36.004 14.308,36.004 C19.6,36.004 22.192,33.25 22.192,29.902 C22.192,27.148 20.302,24.772 16.468,23.962 L11.014,22.774 C5.56,21.586 1.672,18.022 1.672,12.298 C1.672,6.304 7.234,0.904 14.308,0.904 C22.948,0.904 26.404,6.25 27.268,10.408 Z M45.336,36.274 C49.656,36.274 53.436,33.034 53.436,26.986 C53.436,20.992 49.656,17.752 45.336,17.752 C41.016,17.752 37.236,20.992 37.236,26.986 C37.236,33.034 41.016,36.274 45.336,36.274 Z M45.336,13.216 C53.112,13.216 58.62,19.102 58.62,26.986 C58.62,34.924 53.112,40.81 45.336,40.81 C37.56,40.81 32.052,34.924 32.052,26.986 C32.052,19.102 37.56,13.216 45.336,13.216 Z M78.578,18.616 L72.314,18.616 L72.314,40 L67.076,40 L67.076,18.616 L62.27,18.616 L62.27,14.026 L67.076,14.026 L67.076,9.652 C67.076,3.874 70.91,0.742 75.608,0.742 C77.336,0.742 78.416,1.12 78.632,1.282 L78.632,5.818 C78.362,5.71 77.714,5.494 76.418,5.494 C74.636,5.494 72.314,6.358 72.314,9.922 L72.314,14.026 L78.578,14.026 L78.578,18.616 Z M91.246,5.818 L91.246,14.026 L96.862,14.026 L96.862,18.616 L91.246,18.616 L91.246,32.116 C91.246,34.492 92.218,35.68 94.864,35.68 C95.512,35.68 96.43,35.572 96.862,35.464 L96.862,39.784 C96.43,39.946 95.134,40.27 93.406,40.27 C88.978,40.27 86.17,37.57 86.17,32.872 L86.17,18.616 L81.202,18.616 L81.202,14.026 L82.606,14.026 C85.414,14.026 86.602,12.298 86.602,10.03 L86.602,5.818 L91.246,5.818 Z M119.196,14.026 L124.434,14.026 L131.184,33.574 L136.908,14.026 L142.254,14.026 L133.83,40 L128.592,40 L121.68,20.236 L114.93,40 L109.584,40 L101.052,14.026 L106.614,14.026 L112.446,33.574 L119.196,14.026 Z M145.904,33.034 C145.904,28.39 149.306,25.798 153.788,25.15 L160.808,24.124 C162.374,23.908 162.806,23.098 162.806,22.18 C162.806,19.642 161.132,17.536 157.19,17.536 C153.626,17.536 151.628,19.75 151.304,22.774 L146.444,21.64 C146.984,16.672 151.466,13.216 157.082,13.216 C164.858,13.216 167.882,17.644 167.882,22.72 L167.882,35.734 C167.882,38.002 168.098,39.352 168.206,40 L163.238,40 C163.13,39.352 162.968,38.38 162.968,36.49 C161.834,38.326 159.242,40.81 154.598,40.81 C149.306,40.81 145.904,37.138 145.904,33.034 Z M155.3,36.544 C159.458,36.544 162.806,34.546 162.806,28.876 L162.806,27.688 L154.868,28.876 C152.708,29.2 151.088,30.442 151.088,32.764 C151.088,34.708 152.708,36.544 155.3,36.544 Z M190.594,13.756 L190.594,19.156 C189.838,19.048 189.082,18.994 188.38,18.994 C184.114,18.994 181.252,21.262 181.252,26.986 L181.252,40 L176.176,40 L176.176,14.026 L181.144,14.026 L181.144,18.562 C183.034,14.566 186.274,13.594 188.92,13.594 C189.622,13.594 190.324,13.702 190.594,13.756 Z M199.428,24.34 L213.63,24.34 C213.522,20.614 211.092,17.698 206.502,17.698 C202.236,17.698 199.644,20.992 199.428,24.34 Z M214.386,31.09 L218.76,32.602 C217.302,37.192 213.144,40.81 207.096,40.81 C200.13,40.81 194.028,35.734 194.028,26.932 C194.028,18.778 199.914,13.216 206.448,13.216 C214.44,13.216 218.922,18.724 218.922,26.824 C218.922,27.472 218.868,28.12 218.814,28.444 L199.266,28.444 C199.374,33.088 202.722,36.328 207.096,36.328 C211.308,36.328 213.414,34.006 214.386,31.09 Z M242.746,26.932 C242.746,32.278 245.5,36.22 250.36,36.22 C255.004,36.22 257.866,32.17 257.866,26.824 C257.866,21.478 255.058,17.806 250.414,17.806 C245.77,17.806 242.746,21.586 242.746,26.932 Z M257.92,36.49 L257.92,36.058 C256.678,38.542 253.924,40.702 249.874,40.702 C242.26,40.702 237.562,34.654 237.562,26.932 C237.562,19.588 242.53,13.324 249.874,13.324 C254.464,13.324 256.948,15.592 257.812,17.698 L257.812,0.904 L262.834,0.904 L262.834,35.194 C262.834,37.678 263.05,39.568 263.104,40 L258.19,40 C258.082,39.406 257.92,38.056 257.92,36.49 Z M275.178,24.34 L289.38,24.34 C289.272,20.614 286.842,17.698 282.252,17.698 C277.986,17.698 275.394,20.992 275.178,24.34 Z M290.136,31.09 L294.51,32.602 C293.052,37.192 288.894,40.81 282.846,40.81 C275.88,40.81 269.778,35.734 269.778,26.932 C269.778,18.778 275.664,13.216 282.198,13.216 C290.19,13.216 294.672,18.724 294.672,26.824 C294.672,27.472 294.618,28.12 294.564,28.444 L275.016,28.444 C275.124,33.088 278.472,36.328 282.846,36.328 C287.058,36.328 289.164,34.006 290.136,31.09 Z M323.27,14.026 L312.902,40 L307.772,40 L297.242,14.026 L302.966,14.026 L310.364,34.06 L317.816,14.026 L323.27,14.026 Z M331.024,24.34 L345.226,24.34 C345.118,20.614 342.688,17.698 338.098,17.698 C333.832,17.698 331.24,20.992 331.024,24.34 Z M345.982,31.09 L350.356,32.602 C348.898,37.192 344.74,40.81 338.692,40.81 C331.726,40.81 325.624,35.734 325.624,26.932 C325.624,18.778 331.51,13.216 338.044,13.216 C346.036,13.216 350.518,18.724 350.518,26.824 C350.518,27.472 350.464,28.12 350.41,28.444 L330.862,28.444 C330.97,33.088 334.318,36.328 338.692,36.328 C342.904,36.328 345.01,34.006 345.982,31.09 Z M362.484,40 L357.408,40 L357.408,0.904 L362.484,0.904 L362.484,40 Z M382.658,36.274 C386.978,36.274 390.758,33.034 390.758,26.986 C390.758,20.992 386.978,17.752 382.658,17.752 C378.338,17.752 374.558,20.992 374.558,26.986 C374.558,33.034 378.338,36.274 382.658,36.274 Z M382.658,13.216 C390.434,13.216 395.942,19.102 395.942,26.986 C395.942,34.924 390.434,40.81 382.658,40.81 C374.882,40.81 369.374,34.924 369.374,26.986 C369.374,19.102 374.882,13.216 382.658,13.216 Z M407.854,50.26 L402.832,50.26 L402.832,14.026 L407.746,14.026 L407.746,18.076 C409.15,15.484 412.228,13.432 416.44,13.432 C424.216,13.432 428.374,19.426 428.374,26.986 C428.374,34.708 423.892,40.702 416.278,40.702 C412.282,40.702 409.258,38.812 407.854,36.49 L407.854,50.26 Z M423.19,26.986 C423.19,21.802 420.274,17.914 415.522,17.914 C410.878,17.914 407.8,21.802 407.8,26.986 C407.8,32.332 410.878,36.166 415.522,36.166 C420.22,36.166 423.19,32.332 423.19,26.986 Z M438.558,24.34 L452.76,24.34 C452.652,20.614 450.222,17.698 445.632,17.698 C441.366,17.698 438.774,20.992 438.558,24.34 Z M453.516,31.09 L457.89,32.602 C456.432,37.192 452.274,40.81 446.226,40.81 C439.26,40.81 433.158,35.734 433.158,26.932 C433.158,18.778 439.044,13.216 445.578,13.216 C453.57,13.216 458.052,18.724 458.052,26.824 C458.052,27.472 457.998,28.12 457.944,28.444 L438.396,28.444 C438.504,33.088 441.852,36.328 446.226,36.328 C450.438,36.328 452.544,34.006 453.516,31.09 Z M479.36,13.756 L479.36,19.156 C478.604,19.048 477.848,18.994 477.146,18.994 C472.88,18.994 470.018,21.262 470.018,26.986 L470.018,40 L464.942,40 L464.942,14.026 L469.91,14.026 L469.91,18.562 C471.8,14.566 475.04,13.594 477.686,13.594 C478.388,13.594 479.09,13.702 479.36,13.756 Z M32.992,127 L27.7,127 L27.7,109.99 L8.152,109.99 L8.152,127 L2.86,127 L2.86,88.714 L8.152,88.714 L8.152,105.076 L27.7,105.076 L27.7,88.714 L32.992,88.714 L32.992,127 Z M59.7,123.868 C58.296,126.568 55.056,127.81 52.032,127.81 C45.984,127.81 42.312,123.274 42.312,117.388 L42.312,101.026 L47.388,101.026 L47.388,116.632 C47.388,120.196 49.008,123.328 53.274,123.328 C57.378,123.328 59.43,120.628 59.43,116.686 L59.43,101.026 L64.506,101.026 L64.506,122.194 C64.506,124.246 64.668,126.082 64.776,127 L59.916,127 C59.808,126.406 59.7,124.948 59.7,123.868 Z M71.396,128.404 L76.31,127.27 C76.688,130.888 79.442,133.642 83.384,133.642 C88.838,133.642 91.322,130.834 91.322,125.218 L91.322,121.492 C90.08,123.868 87.272,125.758 83.384,125.758 C76.472,125.758 71.45,120.52 71.45,113.176 C71.45,106.156 76.256,100.54 83.384,100.54 C87.38,100.54 90.08,102.052 91.376,104.644 L91.376,101.026 L96.398,101.026 L96.398,125.056 C96.398,131.644 93.158,138.07 83.384,138.07 C76.904,138.07 72.044,133.966 71.396,128.404 Z M84.14,121.492 C88.514,121.492 91.538,118.198 91.538,113.176 C91.538,108.154 88.514,104.86 84.14,104.86 C79.658,104.86 76.634,108.154 76.634,113.176 C76.634,118.252 79.55,121.492 84.14,121.492 Z M116.032,123.274 C120.352,123.274 124.132,120.034 124.132,113.986 C124.132,107.992 120.352,104.752 116.032,104.752 C111.712,104.752 107.932,107.992 107.932,113.986 C107.932,120.034 111.712,123.274 116.032,123.274 Z M116.032,100.216 C123.808,100.216 129.316,106.102 129.316,113.986 C129.316,121.924 123.808,127.81 116.032,127.81 C108.256,127.81 102.748,121.924 102.748,113.986 C102.748,106.102 108.256,100.216 116.032,100.216 Z M159.836,110.638 L146.336,88.714 L152.708,88.714 L162.644,105.778 L172.58,88.714 L178.628,88.714 L165.128,110.638 L165.128,127 L159.836,127 L159.836,110.638 Z M197.776,123.868 C196.372,126.568 193.132,127.81 190.108,127.81 C184.06,127.81 180.388,123.274 180.388,117.388 L180.388,101.026 L185.464,101.026 L185.464,116.632 C185.464,120.196 187.084,123.328 191.35,123.328 C195.454,123.328 197.506,120.628 197.506,116.686 L197.506,101.026 L202.582,101.026 L202.582,122.194 C202.582,124.246 202.744,126.082 202.852,127 L197.992,127 C197.884,126.406 197.776,124.948 197.776,123.868 Z" id="Software-developer-H"></path>
        </g>
    </g>
</svg>