<?xml version="1.0" encoding="UTF-8"?>
<svg width="201px" height="51px" viewBox="0 0 201 51" version="1.1" xmlns="http://www.w3.org/2000/svg" xmlns:xlink="http://www.w3.org/1999/xlink">
    <!-- Generator: Sketch 54.1 (76490) - https://sketchapp.com -->
    <title>Software-developer-H</title>
    <desc>Created with Sketch.</desc>
    <g id="Page-1" stroke="none" stroke-width="1" fill="none" fill-rule="evenodd">
        <g id="title" fill="#333333" fill-rule="nonzero">
            <path d="M30.992,39 L25.7,39 L25.7,21.99 L6.152,21.99 L6.152,39 L0.86,39 L0.86,0.714 L6.152,0.714 L6.152,17.076 L25.7,17.076 L25.7,0.714 L30.992,0.714 L30.992,39 Z M57.7,35.868 C56.296,38.568 53.056,39.81 50.032,39.81 C43.984,39.81 40.312,35.274 40.312,29.388 L40.312,13.026 L45.388,13.026 L45.388,28.632 C45.388,32.196 47.008,35.328 51.274,35.328 C55.378,35.328 57.43,32.628 57.43,28.686 L57.43,13.026 L62.506,13.026 L62.506,34.194 C62.506,36.246 62.668,38.082 62.776,39 L57.916,39 C57.808,38.406 57.7,36.948 57.7,35.868 Z M69.396,40.404 L74.31,39.27 C74.688,42.888 77.442,45.642 81.384,45.642 C86.838,45.642 89.322,42.834 89.322,37.218 L89.322,33.492 C88.08,35.868 85.272,37.758 81.384,37.758 C74.472,37.758 69.45,32.52 69.45,25.176 C69.45,18.156 74.256,12.54 81.384,12.54 C85.38,12.54 88.08,14.052 89.376,16.644 L89.376,13.026 L94.398,13.026 L94.398,37.056 C94.398,43.644 91.158,50.07 81.384,50.07 C74.904,50.07 70.044,45.966 69.396,40.404 Z M82.14,33.492 C86.514,33.492 89.538,30.198 89.538,25.176 C89.538,20.154 86.514,16.86 82.14,16.86 C77.658,16.86 74.634,20.154 74.634,25.176 C74.634,30.252 77.55,33.492 82.14,33.492 Z M114.032,35.274 C118.352,35.274 122.132,32.034 122.132,25.986 C122.132,19.992 118.352,16.752 114.032,16.752 C109.712,16.752 105.932,19.992 105.932,25.986 C105.932,32.034 109.712,35.274 114.032,35.274 Z M114.032,12.216 C121.808,12.216 127.316,18.102 127.316,25.986 C127.316,33.924 121.808,39.81 114.032,39.81 C106.256,39.81 100.748,33.924 100.748,25.986 C100.748,18.102 106.256,12.216 114.032,12.216 Z M157.836,22.638 L144.336,0.714 L150.708,0.714 L160.644,17.778 L170.58,0.714 L176.628,0.714 L163.128,22.638 L163.128,39 L157.836,39 L157.836,22.638 Z M195.776,35.868 C194.372,38.568 191.132,39.81 188.108,39.81 C182.06,39.81 178.388,35.274 178.388,29.388 L178.388,13.026 L183.464,13.026 L183.464,28.632 C183.464,32.196 185.084,35.328 189.35,35.328 C193.454,35.328 195.506,32.628 195.506,28.686 L195.506,13.026 L200.582,13.026 L200.582,34.194 C200.582,36.246 200.744,38.082 200.852,39 L195.992,39 C195.884,38.406 195.776,36.948 195.776,35.868 Z" id="Software-developer-H"></path>
        </g>
    </g>
</svg>